<svg xmlns="http://www.w3.org/2000/svg" xmlns:xlink="http://www.w3.org/1999/xlink" width="500" zoomAndPan="magnify" viewBox="0 0 375 374.999991" height="500" preserveAspectRatio="xMidYMid meet" version="1.0"><defs><clipPath id="648043824c"><path d="M 11.015625 159 L 364 159 L 364 375 L 11.015625 375 Z M 11.015625 159 " clip-rule="nonzero"/></clipPath></defs><g clip-path="url(#648043824c)"><path fill="#78a53d" d="M 363.914062 199.074219 C 363.914062 197.609375 363.261719 196.140625 361.957031 195.164062 C 361.628906 195 355.109375 189.78125 348.585938 187.175781 C 332.609375 180.976562 314.183594 184.074219 300.488281 195.164062 C 292.988281 201.195312 287.445312 208.53125 282.066406 215.707031 C 274.566406 225.488281 267.554688 234.78125 256.46875 240 C 244.238281 245.707031 228.585938 245.871094 213.585938 240 C 201.195312 235.109375 188.96875 226.46875 176.902344 214.074219 C 174.621094 210.976562 172.011719 208.207031 169.402344 205.433594 C 167.609375 203.640625 165.976562 201.683594 164.347656 199.726562 C 162.71875 197.933594 161.25 195.976562 159.78125 194.023438 C 157.335938 190.925781 154.726562 187.824219 152.121094 184.726562 C 142.335938 173.476562 132.226562 166.628906 120.652344 162.878906 C 103.53125 157.5 83.96875 158.96875 59.023438 167.609375 C 41.414062 173.804688 14.183594 193.859375 13.042969 194.675781 C 11.738281 195.652344 11.085938 197.121094 11.085938 198.75 C 11.085938 217.335938 14.023438 235.433594 19.402344 252.226562 C 19.566406 252.554688 19.566406 252.878906 19.726562 253.042969 C 26.738281 274.402344 37.5 294.128906 51.683594 311.085938 C 52.011719 311.414062 52.175781 311.738281 52.664062 312.066406 C 85.109375 350.542969 133.53125 375 187.5 375 C 242.609375 375 292.011719 349.566406 324.292969 309.78125 C 326.414062 307.664062 328.371094 305.378906 329.835938 302.773438 C 330 302.609375 330 302.445312 330 302.28125 C 351.195312 273.585938 363.914062 237.878906 363.914062 199.074219 Z M 306.683594 310.761719 C 304.726562 311.902344 302.933594 312.878906 300.976562 313.859375 C 262.5 333.425781 210.816406 333.261719 172.5 313.371094 C 156.195312 304.890625 142.5 292.335938 132.390625 282.390625 L 130.433594 280.433594 C 125.707031 275.707031 120.816406 270.816406 115.109375 266.902344 C 107.28125 261.523438 99.128906 258.75 91.304688 259.074219 C 83.152344 259.402344 74.835938 262.988281 68.316406 269.183594 C 59.835938 277.175781 55.433594 287.773438 53.152344 296.574219 C 43.207031 282.878906 35.054688 267.71875 29.675781 251.25 C 33.75 242.445312 54.457031 203.316406 93.097656 215.542969 C 111.03125 221.25 121.46875 232.5 133.695312 245.542969 C 151.792969 264.945312 172.335938 286.792969 222.390625 296.25 C 228.585938 297.390625 234.621094 297.878906 240.488281 297.878906 C 292.175781 297.878906 332.121094 256.304688 350.542969 232.824219 C 345 259.238281 333.261719 283.371094 316.792969 303.75 C 313.695312 306.359375 310.273438 308.804688 306.683594 310.761719 Z M 62.445312 177.390625 C 85.109375 169.402344 102.71875 167.933594 117.71875 172.664062 C 127.664062 175.761719 136.140625 181.792969 144.78125 191.574219 C 147.390625 194.511719 149.835938 197.445312 152.121094 200.542969 C 153.75 202.5 155.21875 204.457031 156.847656 206.25 C 158.640625 208.371094 160.433594 210.324219 162.226562 212.28125 C 164.511719 214.890625 166.957031 217.335938 169.402344 220.597656 C 182.933594 234.621094 196.140625 244.074219 210 249.457031 C 227.445312 256.140625 245.871094 256.140625 260.707031 249.128906 C 274.074219 242.933594 282.226562 232.175781 290.054688 221.738281 C 295.433594 214.726562 300.324219 208.207031 306.847656 202.824219 C 317.773438 193.859375 332.445312 191.414062 345 196.304688 C 348.261719 197.609375 351.683594 199.890625 353.804688 201.359375 C 353.804688 204.78125 353.316406 208.207031 353.152344 211.792969 C 352.988281 211.957031 352.988281 211.957031 352.824219 212.121094 C 352.335938 212.933594 297.226562 300.164062 224.023438 286.304688 C 177.066406 277.5 158.640625 257.773438 140.707031 238.695312 C 128.152344 225.324219 116.25 212.609375 95.871094 206.085938 C 59.183594 194.347656 35.871094 221.25 25.597656 237.71875 C 22.824219 225.976562 21.195312 213.914062 20.871094 201.523438 C 27.71875 196.957031 48.75 182.121094 62.445312 177.390625 Z M 61.140625 307.175781 C 62.445312 298.859375 65.871094 285.488281 75.164062 276.683594 C 79.890625 272.121094 85.925781 269.511719 91.628906 269.347656 C 98.804688 269.183594 105.164062 272.609375 109.402344 275.542969 C 114.457031 278.96875 118.695312 283.371094 123.425781 287.933594 L 125.378906 289.890625 C 135.976562 300.324219 150.324219 313.53125 167.933594 322.664062 C 188.640625 333.425781 212.933594 338.804688 237.226562 338.804688 C 255.976562 338.804688 274.566406 335.542969 291.523438 329.183594 C 262.988281 352.011719 226.957031 365.871094 187.664062 365.871094 C 136.957031 365.542969 91.628906 342.878906 61.140625 307.175781 Z M 61.140625 307.175781 " fill-opacity="1" fill-rule="nonzero"/></g><path fill="#78a53d" d="M 35.871094 122.445312 C 62.933594 124.074219 77.933594 108.75 85.761719 95.21875 C 94.238281 80.542969 96.03125 65.21875 96.195312 64.566406 L 97.011719 57.390625 L 90 59.183594 C 20.871094 77.28125 13.371094 167.609375 13.042969 171.523438 L 22.988281 172.335938 C 22.824219 171.847656 24.78125 147.554688 35.871094 122.445312 Z M 84.457031 71.414062 C 83.152344 76.46875 80.871094 83.476562 76.957031 90.324219 C 68.640625 104.835938 56.414062 112.335938 40.597656 112.664062 C 49.890625 95.542969 63.75 79.402344 84.457031 71.414062 Z M 84.457031 71.414062 " fill-opacity="1" fill-rule="nonzero"/><path fill="#78a53d" d="M 152.933594 72.554688 C 152.773438 72.878906 146.574219 91.792969 132.878906 109.890625 C 111.03125 103.53125 95.707031 113.152344 86.738281 122.773438 C 76.792969 133.207031 72.226562 145.597656 72.066406 146.085938 L 69.621094 152.933594 L 76.957031 152.773438 C 137.609375 151.46875 161.574219 78.75 162.554688 75.652344 Z M 85.109375 142.011719 C 87.066406 138.425781 90.164062 133.859375 94.074219 129.621094 C 102.390625 120.816406 112.011719 117.066406 122.773438 118.042969 C 123.75 118.207031 124.890625 118.371094 125.871094 118.53125 C 115.433594 129.78125 102.066406 139.402344 85.109375 142.011719 Z M 85.109375 142.011719 " fill-opacity="1" fill-rule="nonzero"/><path fill="#78a53d" d="M 252.878906 222.71875 L 257.121094 213.585938 C 256.628906 213.425781 234.621094 203.152344 214.890625 184.074219 C 225.816406 159.128906 216.683594 139.890625 206.738281 127.988281 C 195.816406 114.945312 182.121094 107.933594 181.628906 107.609375 L 175.109375 104.347656 L 174.457031 111.523438 C 167.28125 182.609375 249.292969 221.085938 252.878906 222.71875 Z M 207.226562 176.085938 C 194.347656 161.574219 184.074219 142.824219 183.914062 120.652344 C 195.488281 128.476562 217.011719 147.71875 207.226562 176.085938 Z M 207.226562 176.085938 " fill-opacity="1" fill-rule="nonzero"/><path fill="#78a53d" d="M 142.664062 64.890625 C 143.804688 64.890625 145.109375 65.054688 146.25 65.054688 C 161.738281 65.378906 182.609375 60.324219 195.164062 36.359375 C 222.390625 39.78125 244.238281 50.542969 244.566406 50.707031 L 249.128906 41.738281 C 245.707031 39.945312 164.347656 0 113.152344 49.890625 L 107.933594 54.945312 L 114.621094 58.042969 C 115.273438 58.371094 127.335938 63.75 142.664062 64.890625 Z M 184.238281 35.378906 C 168.261719 60.652344 139.890625 55.925781 126.359375 51.847656 C 143.96875 37.988281 164.835938 34.402344 184.238281 35.378906 Z M 184.238281 35.378906 " fill-opacity="1" fill-rule="nonzero"/><path fill="#78a53d" d="M 310.761719 162.71875 L 308.476562 155.871094 C 308.316406 155.21875 303.425781 140.707031 292.011719 127.988281 C 281.574219 116.414062 263.804688 104.511719 237.71875 111.683594 C 221.738281 89.347656 214.726562 66.03125 214.566406 65.707031 L 204.945312 68.476562 C 206.085938 72.226562 232.011719 158.96875 303.585938 162.390625 Z M 244.402344 120.488281 C 273.914062 114.945312 289.566406 138.914062 295.761719 151.628906 C 273.914062 148.042969 257.121094 135.164062 244.402344 120.488281 Z M 244.402344 120.488281 " fill-opacity="1" fill-rule="nonzero"/><path fill="#78a53d" d="M 309.457031 124.074219 C 319.566406 134.675781 331.792969 139.890625 332.28125 140.054688 L 338.96875 142.824219 L 339.128906 135.488281 C 340.925781 74.023438 268.371094 45.976562 265.273438 44.835938 L 261.683594 54.128906 C 262.011719 54.292969 280.925781 61.628906 298.695312 76.304688 C 291.195312 98.476562 300.324219 114.457031 309.457031 124.074219 Z M 328.859375 127.011719 C 325.273438 124.726562 320.707031 121.46875 316.628906 117.226562 C 307.335938 107.445312 304.074219 96.359375 307.011719 84.128906 C 318.097656 95.21875 327.066406 109.402344 328.859375 127.011719 Z M 328.859375 127.011719 " fill-opacity="1" fill-rule="nonzero"/><path fill="#78a53d" d="M 188.640625 86.25 C 188.640625 81.523438 184.890625 77.773438 180.164062 77.773438 C 175.433594 77.773438 171.683594 81.523438 171.683594 86.25 C 171.683594 90.976562 175.433594 94.726562 180.164062 94.726562 C 184.890625 94.726562 188.640625 90.976562 188.640625 86.25 Z M 178.695312 86.25 C 178.695312 85.433594 179.347656 84.78125 180.164062 84.78125 C 180.976562 84.78125 181.628906 85.433594 181.628906 86.25 C 181.628906 87.878906 178.695312 87.878906 178.695312 86.25 Z M 178.695312 86.25 " fill-opacity="1" fill-rule="nonzero"/><path fill="#78a53d" d="M 336.359375 166.628906 C 336.359375 172.824219 341.414062 178.042969 347.773438 178.042969 C 353.96875 178.042969 359.183594 172.988281 359.183594 166.628906 C 359.183594 160.433594 354.128906 155.21875 347.773438 155.21875 C 341.414062 155.21875 336.359375 160.273438 336.359375 166.628906 Z M 349.074219 166.628906 C 349.074219 168.097656 346.304688 168.097656 346.304688 166.628906 C 346.304688 165.816406 346.957031 165.324219 347.609375 165.324219 C 348.261719 165.324219 349.074219 165.816406 349.074219 166.628906 Z M 349.074219 166.628906 " fill-opacity="1" fill-rule="nonzero"/><path fill="#78a53d" d="M 142.988281 150 C 142.988281 155.542969 147.554688 159.945312 152.933594 159.945312 C 158.476562 159.945312 162.878906 155.378906 162.878906 150 C 162.878906 144.457031 158.316406 140.054688 152.933594 140.054688 C 147.390625 140.054688 142.988281 144.457031 142.988281 150 Z M 152.933594 150 L 157.988281 150 Z M 152.933594 150 " fill-opacity="1" fill-rule="nonzero"/><path fill="#78a53d" d="M 39.128906 143.152344 C 39.128906 148.042969 43.042969 151.957031 47.933594 151.957031 C 52.824219 151.957031 56.738281 148.042969 56.738281 143.152344 C 56.738281 138.261719 52.824219 134.347656 47.933594 134.347656 C 43.042969 134.511719 39.128906 138.425781 39.128906 143.152344 Z M 49.074219 143.152344 C 49.074219 144.457031 46.628906 144.457031 46.628906 143.152344 C 46.628906 142.5 47.121094 141.847656 47.933594 141.847656 C 48.585938 142.011719 49.074219 142.5 49.074219 143.152344 Z M 49.074219 143.152344 " fill-opacity="1" fill-rule="nonzero"/><path fill="#78a53d" d="M 264.292969 174.621094 C 264.292969 170.054688 260.707031 166.46875 256.140625 166.46875 C 251.574219 166.46875 247.988281 170.21875 247.988281 174.621094 C 247.988281 179.183594 251.738281 182.773438 256.140625 182.773438 C 260.542969 182.773438 264.292969 179.183594 264.292969 174.621094 Z M 254.183594 174.621094 C 254.183594 173.640625 255 172.824219 255.976562 172.824219 C 256.957031 172.824219 257.773438 173.640625 257.773438 174.621094 C 257.933594 176.574219 254.183594 176.574219 254.183594 174.621094 Z M 254.183594 174.621094 " fill-opacity="1" fill-rule="nonzero"/></svg>