<svg xmlns="http://www.w3.org/2000/svg" xmlns:xlink="http://www.w3.org/1999/xlink" width="500" zoomAndPan="magnify" viewBox="0 0 375 374.999991" height="500" preserveAspectRatio="xMidYMid meet" version="1.0"><defs><g/><clipPath id="6b83757250"><path d="M 14.371094 179 L 115.621094 179 L 115.621094 240.945312 L 14.371094 240.945312 Z M 14.371094 179 " clip-rule="nonzero"/></clipPath><clipPath id="2a89abff6d"><path d="M 14.371094 150 L 40 150 L 40 184 L 14.371094 184 Z M 14.371094 150 " clip-rule="nonzero"/></clipPath><clipPath id="865a2b3bf1"><rect x="0" width="201" y="0" height="55"/></clipPath></defs><rect x="-37.5" width="450" fill="#ffffff" y="-37.499999" height="449.999989" fill-opacity="1"/><rect x="-37.5" width="450" fill="#ffffff" y="-37.499999" height="449.999989" fill-opacity="1"/><g clip-path="url(#6b83757250)"><path fill="#78a53d" d="M 115.632812 190.820312 C 115.632812 190.398438 115.445312 189.976562 115.074219 189.695312 C 114.980469 189.648438 113.109375 188.152344 111.234375 187.402344 C 106.652344 185.625 101.363281 186.515625 97.433594 189.695312 C 95.28125 191.425781 93.691406 193.53125 92.148438 195.589844 C 89.996094 198.398438 87.984375 201.0625 84.804688 202.5625 C 81.296875 204.199219 76.804688 204.246094 72.5 202.5625 C 68.945312 201.15625 65.433594 198.679688 61.972656 195.121094 C 61.320312 194.234375 60.570312 193.4375 59.820312 192.644531 C 59.308594 192.128906 58.839844 191.566406 58.371094 191.003906 C 57.902344 190.492188 57.480469 189.929688 57.0625 189.367188 C 56.359375 188.480469 55.609375 187.589844 54.863281 186.703125 C 52.054688 183.472656 49.15625 181.507812 45.832031 180.433594 C 40.921875 178.890625 35.308594 179.308594 28.148438 181.789062 C 23.097656 183.566406 15.285156 189.320312 14.957031 189.554688 C 14.582031 189.835938 14.394531 190.257812 14.394531 190.726562 C 14.394531 196.058594 15.238281 201.25 16.78125 206.070312 C 16.828125 206.164062 16.828125 206.257812 16.875 206.304688 C 18.886719 212.433594 21.972656 218.09375 26.042969 222.957031 C 26.136719 223.050781 26.183594 223.144531 26.324219 223.238281 C 35.632812 234.28125 49.527344 241.296875 65.015625 241.296875 C 80.828125 241.296875 95.003906 234 104.265625 222.585938 C 104.875 221.976562 105.433594 221.320312 105.855469 220.574219 C 105.902344 220.527344 105.902344 220.480469 105.902344 220.433594 C 111.984375 212.199219 115.632812 201.953125 115.632812 190.820312 Z M 99.214844 222.863281 C 98.652344 223.191406 98.136719 223.472656 97.574219 223.753906 C 86.535156 229.367188 71.703125 229.320312 60.710938 223.613281 C 56.03125 221.179688 52.101562 217.578125 49.203125 214.726562 L 48.640625 214.164062 C 47.285156 212.808594 45.878906 211.402344 44.242188 210.28125 C 41.996094 208.738281 39.65625 207.941406 37.414062 208.035156 C 35.074219 208.128906 32.6875 209.15625 30.816406 210.933594 C 28.382812 213.226562 27.121094 216.269531 26.464844 218.796875 C 23.609375 214.863281 21.273438 210.515625 19.726562 205.789062 C 20.898438 203.261719 26.839844 192.035156 37.925781 195.542969 C 43.074219 197.179688 46.066406 200.410156 49.574219 204.152344 C 54.769531 209.71875 60.664062 215.988281 75.027344 218.703125 C 76.804688 219.027344 78.535156 219.167969 80.21875 219.167969 C 95.050781 219.167969 106.511719 207.238281 111.796875 200.503906 C 110.207031 208.082031 106.839844 215.003906 102.113281 220.851562 C 101.226562 221.601562 100.242188 222.304688 99.214844 222.863281 Z M 29.132812 184.597656 C 35.632812 182.304688 40.6875 181.882812 44.992188 183.238281 C 47.84375 184.128906 50.277344 185.859375 52.757812 188.667969 C 53.503906 189.507812 54.207031 190.351562 54.863281 191.238281 C 55.332031 191.800781 55.75 192.363281 56.21875 192.878906 C 56.734375 193.484375 57.25 194.046875 57.761719 194.609375 C 58.417969 195.355469 59.121094 196.058594 59.820312 196.992188 C 63.703125 201.015625 67.492188 203.730469 71.46875 205.273438 C 76.476562 207.191406 81.761719 207.191406 86.019531 205.179688 C 89.855469 203.402344 92.195312 200.316406 94.441406 197.320312 C 95.984375 195.308594 97.386719 193.4375 99.261719 191.894531 C 102.394531 189.320312 106.605469 188.621094 110.207031 190.023438 C 111.144531 190.398438 112.125 191.050781 112.734375 191.472656 C 112.734375 192.457031 112.59375 193.4375 112.546875 194.46875 C 112.5 194.515625 112.5 194.515625 112.453125 194.5625 C 112.3125 194.796875 96.5 219.824219 75.492188 215.847656 C 62.019531 213.320312 56.734375 207.660156 51.585938 202.1875 C 47.984375 198.351562 44.570312 194.703125 38.722656 192.832031 C 28.195312 189.460938 21.507812 197.179688 18.558594 201.90625 C 17.761719 198.539062 17.296875 195.074219 17.203125 191.519531 C 19.167969 190.210938 25.203125 185.953125 29.132812 184.597656 Z M 28.757812 221.835938 C 29.132812 219.449219 30.113281 215.613281 32.78125 213.085938 C 34.136719 211.777344 35.867188 211.027344 37.507812 210.980469 C 39.5625 210.933594 41.390625 211.917969 42.605469 212.761719 C 44.054688 213.742188 45.273438 215.003906 46.628906 216.316406 L 47.191406 216.875 C 50.230469 219.871094 54.347656 223.660156 59.402344 226.28125 C 65.34375 229.367188 72.3125 230.910156 79.285156 230.910156 C 84.664062 230.910156 89.996094 229.976562 94.863281 228.152344 C 86.675781 234.703125 76.335938 238.679688 65.0625 238.679688 C 50.511719 238.585938 37.503906 232.082031 28.757812 221.835938 Z M 28.757812 221.835938 " fill-opacity="1" fill-rule="nonzero"/></g><g clip-path="url(#2a89abff6d)"><path fill="#78a53d" d="M 21.507812 168.832031 C 29.273438 169.296875 33.574219 164.902344 35.820312 161.019531 C 38.253906 156.808594 38.769531 152.410156 38.816406 152.222656 L 39.050781 150.164062 L 37.039062 150.679688 C 17.203125 155.871094 15.050781 181.789062 14.957031 182.914062 L 17.808594 183.144531 C 17.761719 183.003906 18.324219 176.035156 21.507812 168.832031 Z M 35.449219 154.1875 C 35.074219 155.636719 34.417969 157.648438 33.296875 159.613281 C 30.910156 163.777344 27.402344 165.929688 22.863281 166.023438 C 25.53125 161.109375 29.507812 156.480469 35.449219 154.1875 Z M 35.449219 154.1875 " fill-opacity="1" fill-rule="nonzero"/></g><path fill="#78a53d" d="M 55.097656 154.515625 C 55.050781 154.609375 53.273438 160.035156 49.34375 165.226562 C 43.074219 163.402344 38.675781 166.164062 36.101562 168.925781 C 33.25 171.917969 31.9375 175.472656 31.890625 175.613281 L 31.191406 177.578125 L 33.296875 177.53125 C 50.699219 177.15625 57.574219 156.292969 57.855469 155.402344 Z M 35.632812 174.445312 C 36.195312 173.414062 37.085938 172.105469 38.207031 170.890625 C 40.59375 168.363281 43.355469 167.285156 46.441406 167.566406 C 46.722656 167.613281 47.050781 167.660156 47.332031 167.707031 C 44.335938 170.9375 40.5 173.695312 35.632812 174.445312 Z M 35.632812 174.445312 " fill-opacity="1" fill-rule="nonzero"/><path fill="#78a53d" d="M 83.773438 197.601562 L 84.992188 194.980469 C 84.851562 194.933594 78.535156 191.988281 72.875 186.515625 C 76.007812 179.355469 73.386719 173.835938 70.535156 170.421875 C 67.398438 166.679688 63.46875 164.667969 63.332031 164.574219 L 61.457031 163.636719 L 61.273438 165.695312 C 59.214844 186.09375 82.746094 197.132812 83.773438 197.601562 Z M 70.675781 184.222656 C 66.980469 180.058594 64.03125 174.679688 63.984375 168.316406 C 67.308594 170.5625 73.480469 176.082031 70.675781 184.222656 Z M 70.675781 184.222656 " fill-opacity="1" fill-rule="nonzero"/><path fill="#78a53d" d="M 52.148438 152.316406 C 52.476562 152.316406 52.851562 152.363281 53.179688 152.363281 C 57.621094 152.457031 63.609375 151.007812 67.214844 144.128906 C 75.027344 145.113281 81.296875 148.199219 81.386719 148.246094 L 82.699219 145.671875 C 81.714844 145.15625 58.371094 133.695312 43.679688 148.011719 L 42.183594 149.460938 L 44.101562 150.351562 C 44.289062 150.445312 47.75 151.988281 52.148438 152.316406 Z M 64.078125 143.847656 C 59.492188 151.097656 51.355469 149.742188 47.46875 148.574219 C 52.523438 144.597656 58.511719 143.566406 64.078125 143.847656 Z M 64.078125 143.847656 " fill-opacity="1" fill-rule="nonzero"/><path fill="#78a53d" d="M 100.382812 180.386719 L 99.726562 178.421875 C 99.679688 178.234375 98.277344 174.070312 95.003906 170.421875 C 92.007812 167.097656 86.910156 163.683594 79.421875 165.742188 C 74.839844 159.332031 72.828125 152.644531 72.78125 152.550781 L 70.019531 153.34375 C 70.347656 154.421875 77.785156 179.308594 98.324219 180.292969 Z M 81.339844 168.269531 C 89.808594 166.679688 94.300781 173.554688 96.078125 177.203125 C 89.808594 176.175781 84.992188 172.480469 81.339844 168.269531 Z M 81.339844 168.269531 " fill-opacity="1" fill-rule="nonzero"/><path fill="#78a53d" d="M 100.007812 169.296875 C 102.910156 172.339844 106.417969 173.835938 106.558594 173.882812 L 108.476562 174.679688 L 108.523438 172.574219 C 109.039062 154.9375 88.21875 146.890625 87.328125 146.5625 L 86.300781 149.226562 C 86.394531 149.273438 91.820312 151.378906 96.921875 155.589844 C 94.769531 161.953125 97.386719 166.539062 100.007812 169.296875 Z M 105.574219 170.140625 C 104.546875 169.484375 103.238281 168.550781 102.066406 167.332031 C 99.398438 164.527344 98.464844 161.34375 99.304688 157.835938 C 102.488281 161.019531 105.0625 165.085938 105.574219 170.140625 Z M 105.574219 170.140625 " fill-opacity="1" fill-rule="nonzero"/><path fill="#78a53d" d="M 65.34375 158.445312 C 65.34375 157.085938 64.265625 156.011719 62.910156 156.011719 C 61.550781 156.011719 60.476562 157.085938 60.476562 158.445312 C 60.476562 159.800781 61.550781 160.878906 62.910156 160.878906 C 64.265625 160.878906 65.34375 159.800781 65.34375 158.445312 Z M 62.488281 158.445312 C 62.488281 158.210938 62.675781 158.023438 62.910156 158.023438 C 63.144531 158.023438 63.332031 158.210938 63.332031 158.445312 C 63.332031 158.914062 62.488281 158.914062 62.488281 158.445312 Z M 62.488281 158.445312 " fill-opacity="1" fill-rule="nonzero"/><path fill="#78a53d" d="M 107.726562 181.507812 C 107.726562 183.285156 109.179688 184.785156 111.003906 184.785156 C 112.78125 184.785156 114.277344 183.332031 114.277344 181.507812 C 114.277344 179.730469 112.828125 178.234375 111.003906 178.234375 C 109.179688 178.234375 107.726562 179.683594 107.726562 181.507812 Z M 111.375 181.507812 C 111.375 181.929688 110.582031 181.929688 110.582031 181.507812 C 110.582031 181.273438 110.769531 181.132812 110.957031 181.132812 C 111.144531 181.132812 111.375 181.273438 111.375 181.507812 Z M 111.375 181.507812 " fill-opacity="1" fill-rule="nonzero"/><path fill="#78a53d" d="M 52.242188 176.738281 C 52.242188 178.328125 53.550781 179.589844 55.097656 179.589844 C 56.6875 179.589844 57.949219 178.28125 57.949219 176.738281 C 57.949219 175.144531 56.640625 173.882812 55.097656 173.882812 C 53.503906 173.882812 52.242188 175.144531 52.242188 176.738281 Z M 55.097656 176.738281 L 56.546875 176.738281 Z M 55.097656 176.738281 " fill-opacity="1" fill-rule="nonzero"/><path fill="#78a53d" d="M 22.441406 174.773438 C 22.441406 176.175781 23.5625 177.296875 24.96875 177.296875 C 26.371094 177.296875 27.496094 176.175781 27.496094 174.773438 C 27.496094 173.367188 26.371094 172.246094 24.96875 172.246094 C 23.5625 172.292969 22.441406 173.414062 22.441406 174.773438 Z M 25.296875 174.773438 C 25.296875 175.144531 24.59375 175.144531 24.59375 174.773438 C 24.59375 174.585938 24.734375 174.398438 24.96875 174.398438 C 25.15625 174.445312 25.296875 174.585938 25.296875 174.773438 Z M 25.296875 174.773438 " fill-opacity="1" fill-rule="nonzero"/><path fill="#78a53d" d="M 87.050781 183.800781 C 87.050781 182.492188 86.019531 181.460938 84.710938 181.460938 C 83.398438 181.460938 82.371094 182.539062 82.371094 183.800781 C 82.371094 185.109375 83.445312 186.140625 84.710938 186.140625 C 85.972656 186.140625 87.050781 185.109375 87.050781 183.800781 Z M 84.148438 183.800781 C 84.148438 183.519531 84.382812 183.285156 84.664062 183.285156 C 84.945312 183.285156 85.179688 183.519531 85.179688 183.800781 C 85.226562 184.363281 84.148438 184.363281 84.148438 183.800781 Z M 84.148438 183.800781 " fill-opacity="1" fill-rule="nonzero"/><g transform="matrix(1, 0, 0, 1, 137, 160)"><g clip-path="url(#865a2b3bf1)"><g fill="#2b5e35" fill-opacity="1"><g transform="translate(0.856168, 40.767844)"><g><path d="M 23.390625 -19.140625 C 22.640625 -20.710938 21.554688 -21.925781 20.140625 -22.78125 C 18.722656 -23.644531 17.070312 -24.078125 15.1875 -24.078125 C 13.3125 -24.078125 11.617188 -23.644531 10.109375 -22.78125 C 8.597656 -21.925781 7.410156 -20.691406 6.546875 -19.078125 C 5.679688 -17.460938 5.25 -15.597656 5.25 -13.484375 C 5.25 -11.378906 5.679688 -9.523438 6.546875 -7.921875 C 7.410156 -6.328125 8.597656 -5.097656 10.109375 -4.234375 C 11.617188 -3.367188 13.3125 -2.9375 15.1875 -2.9375 C 17.820312 -2.9375 19.988281 -3.722656 21.6875 -5.296875 C 23.382812 -6.867188 24.375 -8.992188 24.65625 -11.671875 L 13.921875 -11.671875 L 13.921875 -14.53125 L 28.40625 -14.53125 L 28.40625 -11.828125 C 28.207031 -9.609375 27.515625 -7.578125 26.328125 -5.734375 C 25.140625 -3.890625 23.578125 -2.429688 21.640625 -1.359375 C 19.710938 -0.296875 17.5625 0.234375 15.1875 0.234375 C 12.6875 0.234375 10.40625 -0.347656 8.34375 -1.515625 C 6.28125 -2.691406 4.648438 -4.320312 3.453125 -6.40625 C 2.253906 -8.5 1.65625 -10.859375 1.65625 -13.484375 C 1.65625 -16.117188 2.253906 -18.484375 3.453125 -20.578125 C 4.648438 -22.679688 6.28125 -24.316406 8.34375 -25.484375 C 10.40625 -26.660156 12.6875 -27.25 15.1875 -27.25 C 18.050781 -27.25 20.582031 -26.539062 22.78125 -25.125 C 24.988281 -23.707031 26.59375 -21.710938 27.59375 -19.140625 Z M 23.390625 -19.140625 "/></g></g></g><g fill="#2b5e35" fill-opacity="1"><g transform="translate(30.9224, 40.767844)"><g><path d="M 17.15625 0 L 10.75 -11.015625 L 6.5 -11.015625 L 6.5 0 L 2.96875 0 L 2.96875 -26.9375 L 11.671875 -26.9375 C 13.710938 -26.9375 15.429688 -26.585938 16.828125 -25.890625 C 18.234375 -25.203125 19.285156 -24.265625 19.984375 -23.078125 C 20.679688 -21.890625 21.03125 -20.535156 21.03125 -19.015625 C 21.03125 -17.160156 20.492188 -15.523438 19.421875 -14.109375 C 18.359375 -12.691406 16.753906 -11.75 14.609375 -11.28125 L 21.375 0 Z M 6.5 -13.84375 L 11.671875 -13.84375 C 13.578125 -13.84375 15.003906 -14.3125 15.953125 -15.25 C 16.910156 -16.1875 17.390625 -17.441406 17.390625 -19.015625 C 17.390625 -20.617188 16.921875 -21.859375 15.984375 -22.734375 C 15.046875 -23.609375 13.609375 -24.046875 11.671875 -24.046875 L 6.5 -24.046875 Z M 6.5 -13.84375 "/></g></g></g><g fill="#2b5e35" fill-opacity="1"><g transform="translate(54.418888, 40.767844)"><g><path d="M 6.5 -24.078125 L 6.5 -15.078125 L 16.3125 -15.078125 L 16.3125 -12.171875 L 6.5 -12.171875 L 6.5 -2.90625 L 17.46875 -2.90625 L 17.46875 0 L 2.96875 0 L 2.96875 -26.984375 L 17.46875 -26.984375 L 17.46875 -24.078125 Z M 6.5 -24.078125 "/></g></g></g><g fill="#2b5e35" fill-opacity="1"><g transform="translate(74.244051, 40.767844)"><g><path d="M 6.5 -24.078125 L 6.5 -15.078125 L 16.3125 -15.078125 L 16.3125 -12.171875 L 6.5 -12.171875 L 6.5 -2.90625 L 17.46875 -2.90625 L 17.46875 0 L 2.96875 0 L 2.96875 -26.984375 L 17.46875 -26.984375 L 17.46875 -24.078125 Z M 6.5 -24.078125 "/></g></g></g><g fill="#2b5e35" fill-opacity="1"><g transform="translate(94.069214, 40.767844)"><g><path d="M 24.15625 0 L 20.640625 0 L 6.5 -21.453125 L 6.5 0 L 2.96875 0 L 2.96875 -26.984375 L 6.5 -26.984375 L 20.640625 -5.5625 L 20.640625 -26.984375 L 24.15625 -26.984375 Z M 24.15625 0 "/></g></g></g><g fill="#2b5e35" fill-opacity="1"><g transform="translate(121.237026, 40.767844)"><g><path d="M 6.421875 -26.9375 L 6.421875 -9.890625 C 6.421875 -7.492188 7.003906 -5.71875 8.171875 -4.5625 C 9.347656 -3.40625 10.976562 -2.828125 13.0625 -2.828125 C 15.125 -2.828125 16.738281 -3.40625 17.90625 -4.5625 C 19.082031 -5.71875 19.671875 -7.492188 19.671875 -9.890625 L 19.671875 -26.9375 L 23.1875 -26.9375 L 23.1875 -9.9375 C 23.1875 -7.695312 22.734375 -5.804688 21.828125 -4.265625 C 20.929688 -2.734375 19.71875 -1.59375 18.1875 -0.84375 C 16.65625 -0.101562 14.9375 0.265625 13.03125 0.265625 C 11.125 0.265625 9.398438 -0.101562 7.859375 -0.84375 C 6.328125 -1.59375 5.117188 -2.734375 4.234375 -4.265625 C 3.347656 -5.804688 2.90625 -7.695312 2.90625 -9.9375 L 2.90625 -26.9375 Z M 6.421875 -26.9375 "/></g></g></g><g fill="#2b5e35" fill-opacity="1"><g transform="translate(147.32277, 40.767844)"><g><path d="M 6.5 -26.9375 L 6.5 0 L 2.96875 0 L 2.96875 -26.9375 Z M 6.5 -26.9375 "/></g></g></g><g fill="#2b5e35" fill-opacity="1"><g transform="translate(156.829569, 40.767844)"><g><path d="M 19.5625 -26.9375 L 19.5625 -24.078125 L 12.21875 -24.078125 L 12.21875 0 L 8.703125 0 L 8.703125 -24.078125 L 1.3125 -24.078125 L 1.3125 -26.9375 Z M 19.5625 -26.9375 "/></g></g></g><g fill="#2b5e35" fill-opacity="1"><g transform="translate(177.7368, 40.767844)"><g><path d="M 21.84375 -26.9375 L 13.0625 -10.171875 L 13.0625 0 L 9.546875 0 L 9.546875 -10.171875 L 0.734375 -26.9375 L 4.640625 -26.9375 L 11.28125 -13.296875 L 17.9375 -26.9375 Z M 21.84375 -26.9375 "/></g></g></g></g></g></svg>