<svg xmlns="http://www.w3.org/2000/svg" xmlns:xlink="http://www.w3.org/1999/xlink" width="500" zoomAndPan="magnify" viewBox="0 0 375 374.999991" height="500" preserveAspectRatio="xMidYMid meet" version="1.0"><defs><g/><clipPath id="d3506eca97"><path d="M 132.410156 148 L 242.660156 148 L 242.660156 216.039062 L 132.410156 216.039062 Z M 132.410156 148 " clip-rule="nonzero"/></clipPath><clipPath id="d1d2f0f0c7"><rect x="0" width="219" y="0" height="60"/></clipPath></defs><rect x="-37.5" width="450" fill="#ffffff" y="-37.499999" height="449.999989" fill-opacity="1"/><rect x="-37.5" width="450" fill="#ffffff" y="-37.499999" height="449.999989" fill-opacity="1"/><g clip-path="url(#d3506eca97)"><path fill="#78a53d" d="M 242.558594 161.175781 C 242.558594 160.714844 242.355469 160.257812 241.949219 159.953125 C 241.847656 159.902344 239.8125 158.273438 237.773438 157.460938 C 232.789062 155.527344 227.039062 156.492188 222.761719 159.953125 C 220.421875 161.835938 218.691406 164.125 217.011719 166.367188 C 214.671875 169.417969 212.484375 172.320312 209.023438 173.949219 C 205.207031 175.730469 200.320312 175.78125 195.636719 173.949219 C 191.769531 172.421875 187.953125 169.722656 184.1875 165.855469 C 183.476562 164.890625 182.660156 164.023438 181.847656 163.160156 C 181.289062 162.597656 180.777344 161.988281 180.269531 161.378906 C 179.761719 160.820312 179.300781 160.207031 178.84375 159.597656 C 178.082031 158.628906 177.265625 157.664062 176.453125 156.695312 C 173.398438 153.183594 170.246094 151.046875 166.632812 149.878906 C 161.289062 148.199219 155.179688 148.65625 147.394531 151.351562 C 141.898438 153.285156 133.398438 159.546875 133.042969 159.800781 C 132.636719 160.105469 132.433594 160.5625 132.433594 161.074219 C 132.433594 166.875 133.347656 172.523438 135.027344 177.765625 C 135.078125 177.867188 135.078125 177.96875 135.128906 178.019531 C 137.320312 184.6875 140.675781 190.84375 145.105469 196.136719 C 145.207031 196.238281 145.257812 196.339844 145.410156 196.441406 C 155.535156 208.453125 170.652344 216.085938 187.496094 216.085938 C 204.695312 216.085938 220.117188 208.144531 230.191406 195.730469 C 230.855469 195.066406 231.464844 194.355469 231.921875 193.539062 C 231.972656 193.488281 231.972656 193.4375 231.972656 193.386719 C 238.589844 184.429688 242.558594 173.285156 242.558594 161.175781 Z M 224.695312 196.035156 C 224.085938 196.390625 223.527344 196.695312 222.914062 197 C 210.90625 203.109375 194.773438 203.058594 182.8125 196.847656 C 177.726562 194.203125 173.449219 190.285156 170.296875 187.179688 L 169.683594 186.570312 C 168.207031 185.09375 166.683594 183.566406 164.902344 182.34375 C 162.457031 180.664062 159.914062 179.800781 157.472656 179.902344 C 154.925781 180.003906 152.332031 181.125 150.296875 183.058594 C 147.648438 185.550781 146.273438 188.859375 145.5625 191.605469 C 142.457031 187.332031 139.914062 182.597656 138.234375 177.460938 C 139.507812 174.710938 145.96875 162.496094 158.03125 166.316406 C 163.628906 168.09375 166.886719 171.605469 170.703125 175.679688 C 176.351562 181.734375 182.761719 188.554688 198.386719 191.503906 C 200.320312 191.859375 202.203125 192.015625 204.035156 192.015625 C 220.167969 192.015625 232.636719 179.035156 238.386719 171.707031 C 236.65625 179.953125 232.992188 187.484375 227.851562 193.847656 C 226.882812 194.660156 225.816406 195.421875 224.695312 196.035156 Z M 148.464844 154.40625 C 155.535156 151.914062 161.03125 151.453125 165.714844 152.929688 C 168.820312 153.898438 171.464844 155.78125 174.164062 158.832031 C 174.976562 159.75 175.742188 160.664062 176.453125 161.632812 C 176.960938 162.242188 177.417969 162.855469 177.929688 163.414062 C 178.488281 164.074219 179.046875 164.6875 179.609375 165.296875 C 180.320312 166.109375 181.082031 166.875 181.847656 167.890625 C 186.070312 172.269531 190.191406 175.21875 194.519531 176.898438 C 199.964844 178.984375 205.714844 178.984375 210.34375 176.796875 C 214.519531 174.863281 217.0625 171.503906 219.503906 168.25 C 221.183594 166.058594 222.710938 164.023438 224.746094 162.34375 C 228.15625 159.546875 232.738281 158.78125 236.65625 160.308594 C 237.671875 160.714844 238.742188 161.429688 239.402344 161.886719 C 239.402344 162.957031 239.25 164.023438 239.199219 165.144531 C 239.148438 165.195312 239.148438 165.195312 239.097656 165.246094 C 238.945312 165.5 221.746094 192.726562 198.894531 188.402344 C 184.238281 185.652344 178.488281 179.496094 172.890625 173.539062 C 168.972656 169.367188 165.257812 165.398438 158.894531 163.363281 C 147.445312 159.699219 140.167969 168.09375 136.960938 173.234375 C 136.097656 169.570312 135.589844 165.804688 135.488281 161.9375 C 137.625 160.511719 144.1875 155.882812 148.464844 154.40625 Z M 148.054688 194.914062 C 148.464844 192.320312 149.53125 188.144531 152.433594 185.398438 C 153.910156 183.972656 155.792969 183.160156 157.574219 183.109375 C 159.8125 183.058594 161.796875 184.125 163.121094 185.042969 C 164.695312 186.109375 166.019531 187.484375 167.496094 188.910156 L 168.105469 189.519531 C 171.414062 192.777344 175.894531 196.898438 181.390625 199.75 C 187.851562 203.109375 195.433594 204.789062 203.015625 204.789062 C 208.871094 204.789062 214.671875 203.769531 219.964844 201.785156 C 211.058594 208.910156 199.8125 213.234375 187.546875 213.234375 C 171.71875 213.132812 157.574219 206.058594 148.054688 194.914062 Z M 148.054688 194.914062 " fill-opacity="1" fill-rule="nonzero"/></g><path fill="#78a53d" d="M 140.167969 137.257812 C 148.617188 137.765625 153.296875 132.980469 155.742188 128.757812 C 158.386719 124.175781 158.945312 119.394531 158.996094 119.191406 L 159.25 116.953125 L 157.0625 117.511719 C 135.488281 123.160156 133.144531 151.351562 133.042969 152.574219 L 136.148438 152.828125 C 136.097656 152.675781 136.707031 145.09375 140.167969 137.257812 Z M 155.332031 121.328125 C 154.925781 122.90625 154.214844 125.09375 152.992188 127.230469 C 150.398438 131.761719 146.582031 134.101562 141.644531 134.203125 C 144.542969 128.859375 148.871094 123.820312 155.332031 121.328125 Z M 155.332031 121.328125 " fill-opacity="1" fill-rule="nonzero"/><path fill="#78a53d" d="M 176.707031 121.683594 C 176.65625 121.785156 174.722656 127.6875 170.449219 133.335938 C 163.628906 131.351562 158.84375 134.355469 156.046875 137.359375 C 152.941406 140.613281 151.515625 144.484375 151.464844 144.636719 L 150.703125 146.773438 L 152.992188 146.722656 C 171.921875 146.316406 179.40625 123.617188 179.710938 122.652344 Z M 155.535156 143.363281 C 156.148438 142.242188 157.113281 140.820312 158.335938 139.496094 C 160.929688 136.746094 163.933594 135.578125 167.292969 135.882812 C 167.597656 135.933594 167.953125 135.984375 168.257812 136.035156 C 165.003906 139.546875 160.828125 142.550781 155.535156 143.363281 Z M 155.535156 143.363281 " fill-opacity="1" fill-rule="nonzero"/><path fill="#78a53d" d="M 207.902344 168.554688 L 209.226562 165.703125 C 209.074219 165.652344 202.203125 162.445312 196.046875 156.492188 C 199.453125 148.707031 196.605469 142.703125 193.5 138.988281 C 190.089844 134.914062 185.816406 132.726562 185.664062 132.625 L 183.628906 131.609375 L 183.425781 133.847656 C 181.183594 156.035156 206.78125 168.042969 207.902344 168.554688 Z M 193.652344 154 C 189.632812 149.46875 186.425781 143.617188 186.375 136.695312 C 189.988281 139.140625 196.707031 145.144531 193.652344 154 Z M 193.652344 154 " fill-opacity="1" fill-rule="nonzero"/><path fill="#78a53d" d="M 173.5 119.292969 C 173.855469 119.292969 174.265625 119.34375 174.621094 119.34375 C 179.457031 119.445312 185.96875 117.867188 189.886719 110.386719 C 198.386719 111.457031 205.207031 114.8125 205.308594 114.863281 L 206.730469 112.066406 C 205.664062 111.507812 180.269531 99.039062 164.289062 114.609375 L 162.660156 116.1875 L 164.75 117.15625 C 164.953125 117.257812 168.71875 118.9375 173.5 119.292969 Z M 186.476562 110.082031 C 181.492188 117.96875 172.636719 116.492188 168.414062 115.222656 C 173.910156 110.894531 180.421875 109.777344 186.476562 110.082031 Z M 186.476562 110.082031 " fill-opacity="1" fill-rule="nonzero"/><path fill="#78a53d" d="M 225.96875 149.828125 L 225.257812 147.6875 C 225.207031 147.484375 223.679688 142.957031 220.117188 138.988281 C 216.859375 135.375 211.3125 131.660156 203.171875 133.898438 C 198.183594 126.925781 195.996094 119.648438 195.945312 119.546875 L 192.941406 120.410156 C 193.296875 121.582031 201.390625 148.65625 223.730469 149.722656 Z M 205.257812 136.644531 C 214.46875 134.914062 219.351562 142.394531 221.285156 146.367188 C 214.46875 145.246094 209.226562 141.226562 205.257812 136.644531 Z M 205.257812 136.644531 " fill-opacity="1" fill-rule="nonzero"/><path fill="#78a53d" d="M 225.5625 137.765625 C 228.714844 141.074219 232.535156 142.703125 232.6875 142.753906 L 234.773438 143.617188 L 234.824219 141.328125 C 235.382812 122.140625 212.738281 113.390625 211.769531 113.03125 L 210.652344 115.933594 C 210.753906 115.984375 216.65625 118.273438 222.203125 122.855469 C 219.863281 129.777344 222.710938 134.761719 225.5625 137.765625 Z M 231.617188 138.679688 C 230.496094 137.96875 229.074219 136.949219 227.800781 135.628906 C 224.898438 132.574219 223.882812 129.113281 224.796875 125.296875 C 228.257812 128.757812 231.058594 133.183594 231.617188 138.679688 Z M 231.617188 138.679688 " fill-opacity="1" fill-rule="nonzero"/><path fill="#78a53d" d="M 187.851562 125.957031 C 187.851562 124.484375 186.679688 123.3125 185.207031 123.3125 C 183.730469 123.3125 182.558594 124.484375 182.558594 125.957031 C 182.558594 127.433594 183.730469 128.605469 185.207031 128.605469 C 186.679688 128.605469 187.851562 127.433594 187.851562 125.957031 Z M 184.746094 125.957031 C 184.746094 125.703125 184.953125 125.5 185.207031 125.5 C 185.460938 125.5 185.664062 125.703125 185.664062 125.957031 C 185.664062 126.46875 184.746094 126.46875 184.746094 125.957031 Z M 184.746094 125.957031 " fill-opacity="1" fill-rule="nonzero"/><path fill="#78a53d" d="M 233.957031 151.046875 C 233.957031 152.980469 235.535156 154.609375 237.519531 154.609375 C 239.453125 154.609375 241.082031 153.03125 241.082031 151.046875 C 241.082031 149.113281 239.503906 147.484375 237.519531 147.484375 C 235.535156 147.484375 233.957031 149.0625 233.957031 151.046875 Z M 237.929688 151.046875 C 237.929688 151.503906 237.0625 151.503906 237.0625 151.046875 C 237.0625 150.792969 237.265625 150.640625 237.46875 150.640625 C 237.671875 150.640625 237.929688 150.792969 237.929688 151.046875 Z M 237.929688 151.046875 " fill-opacity="1" fill-rule="nonzero"/><path fill="#78a53d" d="M 173.601562 145.855469 C 173.601562 147.585938 175.027344 148.960938 176.707031 148.960938 C 178.4375 148.960938 179.8125 147.535156 179.8125 145.855469 C 179.8125 144.125 178.386719 142.753906 176.707031 142.753906 C 174.976562 142.753906 173.601562 144.125 173.601562 145.855469 Z M 176.707031 145.855469 L 178.285156 145.855469 Z M 176.707031 145.855469 " fill-opacity="1" fill-rule="nonzero"/><path fill="#78a53d" d="M 141.1875 143.71875 C 141.1875 145.246094 142.40625 146.46875 143.933594 146.46875 C 145.460938 146.46875 146.683594 145.246094 146.683594 143.71875 C 146.683594 142.191406 145.460938 140.972656 143.933594 140.972656 C 142.40625 141.023438 141.1875 142.242188 141.1875 143.71875 Z M 144.289062 143.71875 C 144.289062 144.125 143.527344 144.125 143.527344 143.71875 C 143.527344 143.515625 143.679688 143.3125 143.933594 143.3125 C 144.136719 143.363281 144.289062 143.515625 144.289062 143.71875 Z M 144.289062 143.71875 " fill-opacity="1" fill-rule="nonzero"/><path fill="#78a53d" d="M 211.464844 153.542969 C 211.464844 152.117188 210.34375 150.996094 208.921875 150.996094 C 207.496094 150.996094 206.375 152.167969 206.375 153.542969 C 206.375 154.964844 207.546875 156.085938 208.921875 156.085938 C 210.292969 156.085938 211.464844 154.964844 211.464844 153.542969 Z M 208.308594 153.542969 C 208.308594 153.234375 208.5625 152.980469 208.871094 152.980469 C 209.175781 152.980469 209.429688 153.234375 209.429688 153.542969 C 209.480469 154.152344 208.308594 154.152344 208.308594 153.542969 Z M 208.308594 153.542969 " fill-opacity="1" fill-rule="nonzero"/><g transform="matrix(1, 0, 0, 1, 78, 221)"><g clip-path="url(#d1d2f0f0c7)"><g fill="#2b5e35" fill-opacity="1"><g transform="translate(1.009651, 44.236209)"><g><path d="M 25.4375 -20.8125 C 24.625 -22.519531 23.445312 -23.84375 21.90625 -24.78125 C 20.363281 -25.71875 18.570312 -26.1875 16.53125 -26.1875 C 14.476562 -26.1875 12.628906 -25.71875 10.984375 -24.78125 C 9.347656 -23.84375 8.0625 -22.5 7.125 -20.75 C 6.1875 -19 5.71875 -16.972656 5.71875 -14.671875 C 5.71875 -12.367188 6.1875 -10.347656 7.125 -8.609375 C 8.0625 -6.878906 9.347656 -5.546875 10.984375 -4.609375 C 12.628906 -3.671875 14.476562 -3.203125 16.53125 -3.203125 C 19.382812 -3.203125 21.734375 -4.054688 23.578125 -5.765625 C 25.429688 -7.472656 26.515625 -9.785156 26.828125 -12.703125 L 15.140625 -12.703125 L 15.140625 -15.8125 L 30.90625 -15.8125 L 30.90625 -12.859375 C 30.675781 -10.453125 29.914062 -8.242188 28.625 -6.234375 C 27.34375 -4.234375 25.648438 -2.648438 23.546875 -1.484375 C 21.441406 -0.328125 19.101562 0.25 16.53125 0.25 C 13.8125 0.25 11.328125 -0.382812 9.078125 -1.65625 C 6.835938 -2.9375 5.066406 -4.710938 3.765625 -6.984375 C 2.460938 -9.253906 1.8125 -11.816406 1.8125 -14.671875 C 1.8125 -17.535156 2.460938 -20.109375 3.765625 -22.390625 C 5.066406 -24.671875 6.835938 -26.445312 9.078125 -27.71875 C 11.328125 -29 13.8125 -29.640625 16.53125 -29.640625 C 19.632812 -29.640625 22.382812 -28.867188 24.78125 -27.328125 C 27.175781 -25.785156 28.921875 -23.613281 30.015625 -20.8125 Z M 25.4375 -20.8125 "/></g></g></g><g fill="#2b5e35" fill-opacity="1"><g transform="translate(33.715022, 44.236209)"><g><path d="M 18.671875 0 L 11.6875 -11.984375 L 7.0625 -11.984375 L 7.0625 0 L 3.234375 0 L 3.234375 -29.3125 L 12.703125 -29.3125 C 14.910156 -29.3125 16.78125 -28.929688 18.3125 -28.171875 C 19.84375 -27.410156 20.984375 -26.382812 21.734375 -25.09375 C 22.492188 -23.8125 22.875 -22.34375 22.875 -20.6875 C 22.875 -18.664062 22.289062 -16.882812 21.125 -15.34375 C 19.96875 -13.800781 18.222656 -12.78125 15.890625 -12.28125 L 23.25 0 Z M 7.0625 -15.046875 L 12.703125 -15.046875 C 14.773438 -15.046875 16.328125 -15.554688 17.359375 -16.578125 C 18.398438 -17.609375 18.921875 -18.976562 18.921875 -20.6875 C 18.921875 -22.425781 18.410156 -23.769531 17.390625 -24.71875 C 16.367188 -25.675781 14.804688 -26.15625 12.703125 -26.15625 L 7.0625 -26.15625 Z M 7.0625 -15.046875 "/></g></g></g><g fill="#2b5e35" fill-opacity="1"><g transform="translate(59.273973, 44.236209)"><g><path d="M 7.0625 -26.1875 L 7.0625 -16.390625 L 17.75 -16.390625 L 17.75 -13.25 L 7.0625 -13.25 L 7.0625 -3.15625 L 19 -3.15625 L 19 0 L 3.234375 0 L 3.234375 -29.34375 L 19 -29.34375 L 19 -26.1875 Z M 7.0625 -26.1875 "/></g></g></g><g fill="#2b5e35" fill-opacity="1"><g transform="translate(80.839339, 44.236209)"><g><path d="M 7.0625 -26.1875 L 7.0625 -16.390625 L 17.75 -16.390625 L 17.75 -13.25 L 7.0625 -13.25 L 7.0625 -3.15625 L 19 -3.15625 L 19 0 L 3.234375 0 L 3.234375 -29.34375 L 19 -29.34375 L 19 -26.1875 Z M 7.0625 -26.1875 "/></g></g></g><g fill="#2b5e35" fill-opacity="1"><g transform="translate(102.404706, 44.236209)"><g><path d="M 26.28125 0 L 22.453125 0 L 7.0625 -23.34375 L 7.0625 0 L 3.234375 0 L 3.234375 -29.34375 L 7.0625 -29.34375 L 22.453125 -6.0625 L 22.453125 -29.34375 L 26.28125 -29.34375 Z M 26.28125 0 "/></g></g></g><g fill="#2b5e35" fill-opacity="1"><g transform="translate(131.957241, 44.236209)"><g><path d="M 6.984375 -29.3125 L 6.984375 -10.765625 C 6.984375 -8.160156 7.617188 -6.222656 8.890625 -4.953125 C 10.171875 -3.691406 11.945312 -3.0625 14.21875 -3.0625 C 16.457031 -3.0625 18.210938 -3.691406 19.484375 -4.953125 C 20.765625 -6.222656 21.40625 -8.160156 21.40625 -10.765625 L 21.40625 -29.3125 L 25.234375 -29.3125 L 25.234375 -10.8125 C 25.234375 -8.363281 24.738281 -6.304688 23.75 -4.640625 C 22.769531 -2.972656 21.445312 -1.734375 19.78125 -0.921875 C 18.113281 -0.109375 16.242188 0.296875 14.171875 0.296875 C 12.097656 0.296875 10.226562 -0.109375 8.5625 -0.921875 C 6.894531 -1.734375 5.578125 -2.972656 4.609375 -4.640625 C 3.640625 -6.304688 3.15625 -8.363281 3.15625 -10.8125 L 3.15625 -29.3125 Z M 6.984375 -29.3125 "/></g></g></g><g fill="#2b5e35" fill-opacity="1"><g transform="translate(160.332726, 44.236209)"><g><path d="M 7.0625 -29.3125 L 7.0625 0 L 3.234375 0 L 3.234375 -29.3125 Z M 7.0625 -29.3125 "/></g></g></g><g fill="#2b5e35" fill-opacity="1"><g transform="translate(170.674008, 44.236209)"><g><path d="M 21.28125 -29.3125 L 21.28125 -26.1875 L 13.28125 -26.1875 L 13.28125 0 L 9.453125 0 L 9.453125 -26.1875 L 1.421875 -26.1875 L 1.421875 -29.3125 Z M 21.28125 -29.3125 "/></g></g></g><g fill="#2b5e35" fill-opacity="1"><g transform="translate(193.416424, 44.236209)"><g><path d="M 23.75 -29.3125 L 14.21875 -11.0625 L 14.21875 0 L 10.390625 0 L 10.390625 -11.0625 L 0.796875 -29.3125 L 5.046875 -29.3125 L 12.28125 -14.46875 L 19.515625 -29.3125 Z M 23.75 -29.3125 "/></g></g></g></g></g></svg>